<?xml version="1.0" encoding="UTF-8" standalone="no"?>
<!-- Created with Inkscape (http://www.inkscape.org/) -->

<svg
   xmlns:dc="http://purl.org/dc/elements/1.1/"
   xmlns:cc="http://creativecommons.org/ns#"
   xmlns:rdf="http://www.w3.org/1999/02/22-rdf-syntax-ns#"
   xmlns:svg="http://www.w3.org/2000/svg"
   xmlns="http://www.w3.org/2000/svg"
   xmlns:xlink="http://www.w3.org/1999/xlink"
   xmlns:sodipodi="http://sodipodi.sourceforge.net/DTD/sodipodi-0.dtd"
   xmlns:inkscape="http://www.inkscape.org/namespaces/inkscape"
   width="210mm"
   height="297mm"
   viewBox="0 0 210 297"
   version="1.1"
   id="svg8"
   inkscape:version="0.92.3 (2405546, 2018-03-11)"
   sodipodi:docname="festejo_2021.svg">
  <defs
     id="defs2" />
  <sodipodi:namedview
     id="base"
     pagecolor="#ffffff"
     bordercolor="#666666"
     borderopacity="1.0"
     inkscape:pageopacity="0.0"
     inkscape:pageshadow="2"
     inkscape:zoom="0.73964844"
     inkscape:cx="503.87943"
     inkscape:cy="730.58065"
     inkscape:document-units="mm"
     inkscape:current-layer="layer1"
     showgrid="false"
     inkscape:window-width="1366"
     inkscape:window-height="712"
     inkscape:window-x="0"
     inkscape:window-y="0"
     inkscape:window-maximized="1"
     showguides="false" />
  <metadata
     id="metadata5">
    <rdf:RDF>
      <cc:Work
         rdf:about="">
        <dc:format>image/svg+xml</dc:format>
        <dc:type
           rdf:resource="http://purl.org/dc/dcmitype/StillImage" />
        <dc:title></dc:title>
      </cc:Work>
    </rdf:RDF>
  </metadata>
  <g
     inkscape:label="Capa 1"
     inkscape:groupmode="layer"
     id="layer1">
    <image
       sodipodi:absref="./base_2021.jpg"
       y="34.126747"
       x="21.725029"
       id="image48"
       xlink:href="file://./base_2021.jpg"
       preserveAspectRatio="none"
       height="153.72292"
       width="139.7" />
    <path
       style="fill:#8b5a9c;fill-opacity:1;stroke:#000000;stroke-width:0.26458332px;stroke-linecap:butt;stroke-linejoin:miter;stroke-opacity:1"
       d="m 105.16821,74.05413 -1.52029,-5.276294 c -2.02054,2.954419 -3.827855,6.035183 -5.634015,9.121733 l -0.715428,2.414574 2.414574,-2.504004 -0.357714,3.130005 -1.430858,2.95115 3.130001,-3.487722 -0.17885,4.829154 1.34143,-3.934865 0.35771,4.11372 1.34143,2.861721 -0.0894,-3.040576 1.16258,1.520288 1.69914,2.235718 c 0,0 3.13001,-0.357714 2.50401,-0.983715 -0.626,-0.626002 -4.02429,-13.950887 -4.02429,-13.950887 z"
       id="path982"
       inkscape:connector-curvature="0"
       sodipodi:nodetypes="cccccccccccccccscc" />
    <path
       style="fill:#4b7f12;fill-opacity:1;stroke:#000000;stroke-width:0.26458332px;stroke-linecap:butt;stroke-linejoin:miter;stroke-opacity:1"
       d="m 93.721326,91.31388 -6.617726,1.252003 -3.040579,2.325148 -7.690871,7.333159 c -6.388705,3.38882 -12.099322,13.03389 -17.528034,18.95889 -3.320553,-4.23783 -7.164485,-6.89523 -11.540803,-9.88955 l -5.629518,-8.89049 c -1.113653,5.96258 -2.0396,5.55723 -7.690871,5.72344 6.674123,9.34684 10.210921,19.5327 16.633746,26.1132 l 3.219436,3.66657 7.333157,-0.98371 12.162309,-8.76402 7.154299,-6.79658 2.146292,11.98345 -12.520025,34.69835 37.738932,4.29258 13.90967,-2.85735 3.26065,-32.01986 5.00801,-31.65777 4.82915,-7.512017 -8.74232,-5.125494 c -0.16878,-6.316548 -1.05219,-7.638961 0.33602,-13.654543 -7.42593,4.820355 -11.3703,6.295698 -18.86947,3.398292 0.35772,2.235719 -1.41729,5.43254 -2.05686,7.690871 z"
       id="path73"
       inkscape:connector-curvature="0"
       sodipodi:nodetypes="ccccccccccccccccccccccccc" />
    <path
       style="fill:#4b7f12;fill-opacity:1;stroke:#000000;stroke-width:0.26458332px;stroke-linecap:butt;stroke-linejoin:miter;stroke-opacity:1"
       d="m 31.238422,104.89002 0.758828,3.16179 2.908842,1.77059 c 5.499652,0.38558 5.809846,-0.10751 7.777988,-4.86914 l 0.980271,-1.43271 c 2.022167,-2.41324 1.417355,-3.32016 1.232977,-6.408517 -0.964962,-3.085078 -2.951147,-5.811517 -3.414726,-9.105937 -0.06323,-0.252942 -1.517658,-4.489733 -1.517658,-4.489733 l -0.126471,-0.632357 c -1.593489,-0.144985 -1.977655,0.153306 -2.972075,1.264718 -0.518336,2.911727 -0.342246,6.911425 0.85368,9.20079 l 2.37134,0.221327 v 2.402953"
       id="path75"
       inkscape:connector-curvature="0"
       sodipodi:nodetypes="ccccccccccccc" />
    <path
       style="fill:#1a1a1a;stroke:#000000;stroke-width:0.99999994px;stroke-linecap:butt;stroke-linejoin:miter;stroke-opacity:1"
       d="M 162.9668 351.07617 C 158.24683 353.55566 152.86286 354.23792 145.43164 352.33984 L 144.81836 353.02734 L 151.52734 353.6543 L 151.52734 362.73633 L 118.06641 396.43555 L 120.93359 408.38477 L 131.92773 415.07617 C 152.71382 416.53348 153.88752 414.67054 161.32617 396.67383 L 165.03125 391.25781 C 172.67409 382.13691 170.38827 378.70964 169.69141 367.03711 C 167.97135 361.53791 165.39531 356.33976 162.9668 351.07617 z "
       transform="scale(0.26458333)"
       id="path1016" />
    <path
       style="fill:#4b7f12;stroke:#000000;stroke-width:0.26458332px;stroke-linecap:butt;stroke-linejoin:miter;stroke-opacity:1;fill-opacity:1"
       d="M 40.091418,93.570839 36.423748,92.6223 c -3.20127,0.69477 -3.422853,-0.485986 -2.845605,2.592663 -3.749844,0.903593 -3.548212,1.184485 -2.782371,3.541199 -1.476883,1.010255 -0.847874,2.177758 -0.632357,3.794138 -2.476102,1.64775 -1.618477,1.47991 -0.505883,4.17356 l 4.325392,1.40262 3.515831,-1.21292 1.264714,-1.83383 1.391182,-0.12648 c 1.819752,-1.03688 1.930491,-0.62191 1.519144,-2.55021 1.461625,0.33832 2.046217,0.18145 1.705878,-1.3704 2.554582,0.61339 1.13824,-2.023536 1.13824,-2.023536 l -2.655896,-3.351489 z"
       id="path77"
       inkscape:connector-curvature="0"
       sodipodi:nodetypes="ccccccccccccccc" />
    <path
       style="fill:none;stroke:#000000;stroke-width:0.26458332px;stroke-linecap:butt;stroke-linejoin:miter;stroke-opacity:1"
       d="m 32.692842,103.62531 3.098549,0.8853 2.972078,0.56912"
       id="path79"
       inkscape:connector-curvature="0" />
    <path
       style="fill:none;stroke:#000000;stroke-width:0.26458332px;stroke-linecap:butt;stroke-linejoin:miter;stroke-opacity:1"
       d="m 34.716384,100.27382 2.782371,1.32795 1.833832,0.75882 2.341208,0.0425"
       id="path81"
       inkscape:connector-curvature="0" />
    <path
       style="fill:none;stroke:#000000;stroke-width:0.26458332px;stroke-linecap:butt;stroke-linejoin:miter;stroke-opacity:1"
       d="m 36.423748,96.542912 4.173553,2.402956 2.782372,2.086772"
       id="path83"
       inkscape:connector-curvature="0" />
    <path
       style="fill:none;stroke:#000000;stroke-width:0.26458332px;stroke-linecap:butt;stroke-linejoin:miter;stroke-opacity:1"
       d="m 101.93591,106.66062 v 0"
       id="path93"
       inkscape:connector-curvature="0" />
    <path
       style="fill:#1a1a1a;stroke:#000000;stroke-width:0.26458332px;stroke-linecap:butt;stroke-linejoin:miter;stroke-opacity:1"
       d="m 105.52592,90.598447 -4.34884,5.565052 -2.908844,6.070621 -3.541199,7.84123 -4.047302,17.07347 -2.149793,16.56791 -5.897779,-10.37134 -2.146292,-11.98345 -2.832465,-1.67477 3.79414,-1.26471 -1.138242,-2.90884 -6.197095,-0.37942 7.208867,-2.15001 -0.758828,-2.52943 -6.450039,-0.63236 6.197095,-2.65589 0.252944,-3.41473 1.770599,-3.5412 1.730172,-5.319549 3.040581,-2.325148 10.026393,-2.093595 z"
       id="path1002"
       inkscape:connector-curvature="0" />
    <path
       style="fill:none;stroke:#000000;stroke-width:0.26458332px;stroke-linecap:butt;stroke-linejoin:miter;stroke-opacity:1"
       d="m 101.93591,106.66062 1.32794,-0.63236"
       id="path95"
       inkscape:connector-curvature="0" />
    <path
       style="fill:#ffffff;stroke:#000000;stroke-width:0.99999994px;stroke-linecap:butt;stroke-linejoin:miter;stroke-opacity:1;opacity:0.836"
       d="M 240.91211 369.66602 C 242.82564 377.73229 247.09557 382.7927 252.38477 388.78711 C 249.40419 426.81573 253.99653 461.24442 258.59961 498.72656 L 262.90039 504.46289 L 269.59375 506.85352 L 293.49414 512.58984 L 334.60156 509.7207 L 341.77148 492.03516 C 360.0865 488.95272 360.18262 487.93967 373.32031 476.26172 L 383.83594 458.09766 L 385.26953 411.73047 L 380.9668 399.30273 L 355.15625 385.44141 C 355.15625 385.44141 357.06723 374.44727 354.19922 374.44727 C 312.21753 374.65042 278.88622 374.26893 240.91211 369.66602 z M 351.86328 398.20703 L 367.10547 404.08203 L 368.06055 450.44922 L 363.28125 476.73828 L 342.72656 480.5625 C 347.69096 453.11232 351.36185 426.22051 351.86328 398.20703 z "
       transform="scale(0.26458333)"
       id="path99" />
    <path
       style="fill:#b3b3b3;stroke:#000000;stroke-width:0.26458332px;stroke-linecap:butt;stroke-linejoin:miter;stroke-opacity:1"
       d="m 60.579774,168.88453 c -0.442478,-10.7502 2.749372,-19.70006 6.955925,-29.21489 8.222644,1.51853 14.840582,0.59885 23.017784,-0.25294 3.66298,9.29974 4.932452,18.3208 6.197096,28.07664 -12.302468,2.44875 -23.776795,1.80709 -36.170805,1.39119 z"
       id="path101"
       inkscape:connector-curvature="0"
       sodipodi:nodetypes="ccccc" />
    <path
       style="fill:#1a1a1a;stroke:#000000;stroke-width:0.26458332px;stroke-linecap:butt;stroke-linejoin:miter;stroke-opacity:1"
       d="m 91.312311,141.62995 c -8.654649,1.3264 -16.239666,0.53867 -24.851619,-0.18971 0.0366,-3.12375 0.918477,-5.90889 1.89707,-8.82138 9.49978,2.03358 12.603551,1.58173 20.741301,0.66398 1.466283,2.65858 1.807963,5.40346 2.213248,8.34711 z"
       id="path103"
       inkscape:connector-curvature="0"
       sodipodi:nodetypes="ccccc" />
    <path
       style="fill:#1a1a1a;stroke:#000000;stroke-width:0.26458332px;stroke-linecap:butt;stroke-linejoin:miter;stroke-opacity:1"
       d="m 97.256464,170.76888 -0.462486,-4.69292 c -13.464127,2.26509 -23.327331,1.85235 -36.69258,0.87445 l -0.08943,3.94681 c 13.350279,1.99626 24.00211,1.35746 37.244496,-0.12834 z"
       id="path107"
       inkscape:connector-curvature="0"
       sodipodi:nodetypes="ccccc" />
    <path
       style="fill:#333333;stroke:#1a1a1a;stroke-width:0.26458332px;stroke-linecap:butt;stroke-linejoin:miter;stroke-opacity:1"
       d="m 63.741558,97.807623 2.033286,-0.457304 1.475574,0.04471 0.71543,-1.073145 0.715428,-0.223573 10.284307,0.760146 11.044451,-0.357714 2.638148,0.983715 0.581287,1.430859 c -9.884367,0.576967 -19.747384,-0.08929 -29.487911,-1.107694 z"
       id="path109"
       inkscape:connector-curvature="0"
       sodipodi:nodetypes="cccccccccc" />
    <path
       style="fill:#cccccc;stroke:#000000;stroke-width:0.26458332px;stroke-linecap:butt;stroke-linejoin:miter;stroke-opacity:1"
       d="m 74.649713,96.479677 0.09485,-0.727211 -1.169861,-0.09485 c -0.714462,-0.249919 0.200686,-0.679422 0.537504,-0.980154 3.523635,-0.334822 7.034023,-0.194651 10.560357,-0.06324 1.290009,0.589545 1.605529,0.346714 0.158088,0.916918 l 0.03162,1.138241 c -3.544934,0.185026 -6.785119,0.186428 -10.212558,-0.189709 z"
       id="path111"
       inkscape:connector-curvature="0"
       sodipodi:nodetypes="cccccccc" />
    <path
       style="fill:none;stroke:#999999;stroke-width:0.26458332px;stroke-linecap:butt;stroke-linejoin:miter;stroke-opacity:1"
       d="m 74.744563,95.752466 c 3.315757,0.1629 7.021732,-0.02187 10.086086,-0.221321"
       id="path115"
       inkscape:connector-curvature="0"
       sodipodi:nodetypes="cc" />
    <path
       style="fill:#1a1a1a;stroke:#000000;stroke-width:0.26458332px;stroke-linecap:butt;stroke-linejoin:miter;stroke-opacity:1"
       d="m 126.32317,84.21475 c -6.34474,1.172249 -13.83054,3.971987 -19.40853,1.183012 l -0.98629,4.395826 c 6.86341,2.684898 13.03403,3.131508 20.35871,1.370185 z"
       id="path1012"
       inkscape:connector-curvature="0"
       sodipodi:nodetypes="ccccc" />
    <path
       style="fill:#4b7f12;fill-opacity:1;stroke:#000000;stroke-width:0.26458332px;stroke-linecap:butt;stroke-linejoin:miter;stroke-opacity:1"
       d="m 129.22454,74.680132 -2.77229,4.829154 -4.91858,4.560866 -3.75601,1.609717 c -5.7002,1.900512 -4.55842,1.754204 -9.83716,-0.536572 l -2.14629,-4.113724 -2.41458,-7.601442 0.26829,-4.650295 0.80486,-3.398292 -0.89429,-3.040579 -0.0894,-5.902296 2.23572,-6.617729 6.17058,-3.487719 10.64202,0.447143 7.06487,5.902296 1.34143,11.53631 -1.52028,8.942874 z"
       id="path139"
       inkscape:connector-curvature="0"
       sodipodi:nodetypes="cccccccccccccccccc" />
    <path
       style="fill:none;stroke:#000000;stroke-width:0.26458332px;stroke-linecap:butt;stroke-linejoin:miter;stroke-opacity:1"
       d="m 111.33879,63.769827 0.35771,1.878001 -1.16257,4.024294 -0.80486,1.430862 v 1.430858 l 2.41458,1.967434"
       id="path141"
       inkscape:connector-curvature="0" />
    <path
       style="fill:none;stroke:#000000;stroke-width:0.26458332px;stroke-linecap:butt;stroke-linejoin:miter;stroke-opacity:1"
       d="m 113.30622,72.980986 h 0.98372 l 0.98371,0.536572"
       id="path143"
       inkscape:connector-curvature="0" />
    <path
       style="fill:none;stroke:#000000;stroke-width:0.26458332px;stroke-linecap:butt;stroke-linejoin:miter;stroke-opacity:1"
       d="m 109.72907,71.102984 -1.34313,0.651544 0.0632,1.45442 0.64753,1.158727"
       id="path145"
       inkscape:connector-curvature="0"
       sodipodi:nodetypes="cccc" />
    <path
       style="fill:none;stroke:#000000;stroke-width:0.26458332px;stroke-linecap:butt;stroke-linejoin:miter;stroke-opacity:1"
       d="m 115.72128,70.679523 1.07501,1.075005 -0.25294,0.948537"
       id="path147"
       inkscape:connector-curvature="0" />
    <path
       style="fill:#ffffff;stroke:#000000;stroke-width:0.26458332px;stroke-linecap:butt;stroke-linejoin:miter;stroke-opacity:1"
       d="m 107.35921,75.842707 4.33729,1.073143 4.6503,-0.357714 5.32287,-2.618311 c -0.45811,1.229469 -2.06695,3.781398 -2.56419,4.363228 -0.49723,0.58183 -2.74645,1.454156 -3.33436,1.646933 -1.17582,0.385554 -2.58453,0.251589 -4.43233,0.632444 -0.93764,-0.606626 -1.8752,-0.685309 -2.95115,-0.804859 l -0.0447,-1.922719 c -0.88962,-0.574376 -0.87938,-1.020946 -0.98373,-2.012145 z"
       id="path153"
       inkscape:connector-curvature="0"
       sodipodi:nodetypes="ccccsscccc" />
    <path
       style="fill:none;stroke:#000000;stroke-width:0.26458332px;stroke-linecap:butt;stroke-linejoin:miter;stroke-opacity:1"
       d="m 108.34294,77.854851 0.80183,-0.219405 0.8853,0.316179 1.10663,-0.189709 0.56912,0.411033 0.91691,-0.06324 h 1.54928 l 0.50588,0.158088 0.56912,-0.189706 0.25295,0.347795 -0.0632,0.537504 0.47427,-0.663975 0.3478,-0.474265 1.23309,-0.126473 1.23309,-0.505886 1.99193,-1.359566"
       id="path155"
       inkscape:connector-curvature="0"
       sodipodi:nodetypes="cccccccccccccccc" />
    <path
       style="fill:#ffffff;stroke:#000000;stroke-width:0.26458332px;stroke-linecap:butt;stroke-linejoin:miter;stroke-opacity:1"
       d="m 122.67721,66.758912 -2.78237,0.252941 -2.27649,0.252942 c 0,0 -0.99897,-1.386663 -0.75883,-2.086777 0.28272,-0.824249 1.37003,-1.171411 2.21325,-1.391184 0.79653,-0.207605 1.82909,-0.115512 2.46619,0.126471 0.6371,0.241983 1.04774,0.517418 1.26472,1.011772 0.24626,0.561065 -0.12647,1.833835 -0.12647,1.833835 z"
       id="path162"
       inkscape:connector-curvature="0"
       sodipodi:nodetypes="cccsszsc" />
    <path
       style="fill:#ffffff;stroke:#000000;stroke-width:0.26458332px;stroke-linecap:butt;stroke-linejoin:miter;stroke-opacity:1"
       d="m 111.6965,65.647828 c 0,0 -1.10429,-1.500724 -1.91937,-1.860994 -0.92721,-0.409833 -2.06672,-0.488892 -3.03531,-0.189706 -0.92398,0.285406 -2.28904,1.782416 -2.28904,1.782416 v 0 c 0,0 1.46041,1.45994 2.41551,1.695545 0.63968,0.157795 1.30482,-0.186425 1.9603,-0.252942 0.56777,-0.05762 1.70737,-0.126473 1.70737,-0.126473 z"
       id="path164"
       inkscape:connector-curvature="0"
       sodipodi:nodetypes="cssccsscc" />
    <path
       style="opacity:1;fill:#000000;fill-opacity:1;stroke:none;stroke-width:5.12682533;stroke-linecap:round;stroke-linejoin:bevel;stroke-miterlimit:4;stroke-dasharray:none;stroke-dashoffset:0;stroke-opacity:1;paint-order:stroke markers fill"
       d="m 109.65365,65.30615 c 0,0.526215 -0.46923,0.952796 -1.04807,0.952797 -0.57884,-1e-6 -1.04807,-0.426582 -1.04807,-0.952797 0,-0.526214 0.46923,-0.952795 1.04807,-0.952796 l -4e-4,1.012592 c 0.74151,-0.733528 0.2232,-0.245007 0.74151,-0.733528 0.18967,0.172418 0.30696,0.410622 0.30696,0.673728 z"
       id="path166"
       inkscape:connector-curvature="0"
       sodipodi:nodetypes="scscccss" />
    <ellipse
       style="opacity:1;fill:#000000;fill-opacity:1;stroke:none;stroke-width:2.4059999;stroke-linecap:round;stroke-linejoin:bevel;stroke-miterlimit:4;stroke-dasharray:none;stroke-dashoffset:0;stroke-opacity:1;paint-order:stroke markers fill"
       id="path976"
       cx="120.31176"
       cy="65.462585"
       rx="1.1224332"
       ry="1.1066242" />
    <ellipse
       ry="0.37922847"
       rx="0.38464603"
       cy="65.361191"
       cx="120.5577"
       id="ellipse978"
       style="opacity:1;fill:#ffffff;fill-opacity:1;stroke:none;stroke-width:0.82451081;stroke-linecap:round;stroke-linejoin:bevel;stroke-miterlimit:4;stroke-dasharray:none;stroke-dashoffset:0;stroke-opacity:1;paint-order:stroke markers fill" />
    <path
       style="fill:#8b5a9c;fill-opacity:1;stroke:#000000;stroke-width:0.26458332px;stroke-linecap:butt;stroke-linejoin:miter;stroke-opacity:1"
       d="m 113.13498,49.425981 1.25386,1.412225 0.49504,-2.073409 0.73012,2.378737 1.49848,-2.280319 2.27648,-0.948534 -0.50588,1.075005 h 3.47796 l -0.75883,0.948536 4.04708,1.264714 -1.32795,0.569121 1.89707,2.339719 1.39119,4.236791 1.39118,1.264714 -1.64412,0.189706 1.20147,1.075007 0.18971,3.477961 -2.27648,6.386804 -1.51766,2.402954 4.23679,-5.880918 -0.82206,4.742677 -1.91617,7.501814 0.96763,4.007077 0.10551,6.724372 7.33316,8.048588 -2.32515,-9.479449 4.98861,5.359371 8.78342,4.65665 c 0,0 -2.68286,-3.57715 -3.39829,-3.756009 -0.71543,-0.178855 -4.47144,-5.186867 -4.47144,-5.186867 l 5.00801,3.040578 5.9023,2.146289 -5.9023,-6.796584 c 0,0 12.16231,1.609717 11.08916,1.609717 -1.07314,0 -10.01602,-8.585158 -10.01602,-8.585158 l -5.72344,-8.048588 7.33316,5.72344 c 0,0 8.22745,1.252003 7.1543,1.252003 -1.07314,0 -6.97544,-4.650295 -6.97544,-4.650295 l -5.54458,-5.186868 13.59317,2.504006 -9.47945,-5.72344 8.04859,1.073145 8.58516,2.325147 -8.22745,-5.186867 -8.04859,-2.504006 6.26002,-0.178856 15.91831,0.178856 -14.12974,-7.333158 -10.37373,-2.682861 6.43887,-0.357714 11.98345,1.788572 5.36572,-1.073144 -6.61773,-0.894287 -2.68286,-1.967433 6.79659,0.357716 5.54458,0.178856 -12.87774,-3.577148 -8.76402,-4.471437 -7.69087,-0.178859 12.34117,-2.682861 -10.91031,-1.430862 -9.30059,-2.325147 4.98861,-7.974632 -8.56576,3.682053 -16.09717,1.252003 -5.9023,0.178858 8.22745,-4.47144 -10.91031,2.325148 -5.723443,6.438871 -3.577148,-6.260013 1.073145,10.016019 2.504003,6.438871 -8.764015,-4.829154 7.154298,8.406305 2.86172,4.471437 -5.72344,-1.788575 5.365726,3.934864 4.113724,4.292579 2.29803,-8.543366 2.02354,-1.897071 -2.17525,-2.079588 3.6929,1.067816 2.47768,-4.555535 z"
       id="path980"
       inkscape:connector-curvature="0"
       sodipodi:nodetypes="cccccccccccccccccccccccccccccccccscccsccccccccccccccccccccccccccccccccccccccccccccccc" />
    <path
       style="fill:#4b7f12;fill-opacity:1;stroke:#000000;stroke-width:0.26458332px;stroke-linecap:butt;stroke-linejoin:miter;stroke-opacity:1"
       d="m 132.54197,117.91657 -3.41473,5.81768 -2.15001,7.71475 -4.4265,9.48536 -6.45004,-7.71476 -4.04708,-9.48535 -3.41472,-4.17355 -1.64413,-8.34711 -1.7706,-3.28826 -1.13824,-4.42649 -3.66767,-0.12647 -2.150014,-1.13825 -0.126471,2.02354 2.655895,1.39119 1.13825,1.01177 v 2.27648 l -4.805917,-2.02354 -2.402954,1.01177 v 2.15002 l -1.770599,2.02354 0.885298,1.7706 -1.011769,1.39118 1.011769,2.27649 -0.885298,1.51765 1.770599,2.15001 1.897071,1.13825 c 2.293904,4.39046 2.220468,3.69703 6.70298,5.56474 l 1.39118,3.92061 1.39119,3.92061 c 3.91386,8.76206 6.54766,17.60224 12.01478,23.14426 l 3.54119,3.66767 2.90884,1.89707 6.57652,-5.43827 5.81768,-15.80892 c 5.61277,-8.92588 7.97658,-17.81169 9.61182,-27.95017 1.59597,-6.70294 -0.77086,-8.41977 -5.05885,-13.27949 l -6.66289,-3.691857 -5.47836,11.912497 z"
       id="path85"
       inkscape:connector-curvature="0"
       sodipodi:nodetypes="ccccccccccccccccccccccccccccccccccccccc" />
    <path
       style="fill:none;stroke:#000000;stroke-width:0.26458332px;stroke-linecap:butt;stroke-linejoin:miter;stroke-opacity:1"
       d="m 94.727037,110.07535 5.311803,1.70736"
       id="path87"
       inkscape:connector-curvature="0" />
    <path
       style="fill:none;stroke:#000000;stroke-width:0.26458332px;stroke-linecap:butt;stroke-linejoin:miter;stroke-opacity:1"
       d="m 93.841736,113.86949 5.311798,1.39118"
       id="path89"
       inkscape:connector-curvature="0" />
    <path
       style="fill:none;stroke:#000000;stroke-width:0.26458332px;stroke-linecap:butt;stroke-linejoin:miter;stroke-opacity:1"
       d="m 93.841736,117.53716 2.086779,0.44264 1.454422,1.20148"
       id="path91"
       inkscape:connector-curvature="0" />
    <path
       style="fill:#8b5a9c;fill-opacity:1;stroke:#000000;stroke-width:0.26458332px;stroke-linecap:butt;stroke-linejoin:miter;stroke-opacity:1"
       d="m 122.52902,59.886137 -1.98613,0.976604 -2.70954,1.741019 -2.21124,0.805426 -1.37175,0.449018 1.29086,-1.043448 1.46325,-2.297953 2.89013,-3.380087 1.51598,-0.872264 -0.48307,1.195879 -0.02,0.446691 1.55586,-1.765663 1.90756,-0.219211 1.36825,-0.771438 -1.12791,1.202902 -0.73865,0.504133 3.38367,-0.198078 2.81971,0.403371 1.23456,0.619073 -2.53365,0.808935 -1.96619,0.529905 1.0751,0.782036 0.79609,0.214567 -1.95447,0.467765 -2.08927,-0.522947 -0.43497,-0.08208 0.79138,0.921553 1.13725,0.793762 -1.05636,-0.199333 -2.08927,-0.522942 -1.83722,-0.153625 z"
       id="path985"
       inkscape:connector-curvature="0" />
    <path
       style="fill:#8b5a9c;fill-opacity:1;stroke:#000000;stroke-width:0.26458332px;stroke-linecap:butt;stroke-linejoin:miter;stroke-opacity:1"
       d="m 110.40647,60.295584 0.24023,2.654038 -2.27331,-0.513558 -1.92459,-0.882122 -1.7936,0.502709 c -0.23187,0.632357 -0.55316,1.398857 -0.78502,2.031214 l -1.42955,-1.480614 1.81345,-1.532999 -0.8853,-0.126474 -0.44265,0.126474 1.20148,-0.885301 0.50589,-0.189707 -1.13824,-0.569121 -0.56913,-0.316177 1.96031,-0.189709 1.70736,0.189709 0.82207,0.632357 1.20148,1.327949 1.79361,0.908312 z"
       id="path987"
       inkscape:connector-curvature="0"
       sodipodi:nodetypes="cccccccccccccccccccc" />
    <path
       style="fill:#ffaaaa;stroke:#782121;stroke-width:0.26458332px;stroke-linecap:butt;stroke-linejoin:miter;stroke-opacity:1"
       d="m 117.49192,77.698676 1.04588,2.794325 c 1.55179,1.961254 2.54107,1.661952 4.94795,1.901019 l 5.18068,-1.13057 c -0.8687,0.646784 -3.92829,1.794939 -4.97338,1.951703 1.54361,0.475602 3.99708,-0.203217 5.5208,-0.5506 -3.95038,1.248399 -3.30821,2.095428 -6.24165,1.466587 l -1.43853,-0.06099 c -1.47672,-0.07751 -2.19549,-0.488827 -3.21944,-1.430861 -0.84466,-1.533031 -1.31076,-3.134473 -1.67599,-4.829951 z"
       id="path998"
       inkscape:connector-curvature="0"
       sodipodi:nodetypes="ccccccccccc" />
    <image
       sodipodi:absref="./inspiracion_2021.jpg"
       xlink:href="./inspiracion_2021.jpg"
       width="100.54166"
       height="74.083336"
       preserveAspectRatio="none"
       id="image70"
       x="184.30844"
       y="64.1353" />
    <path
       style="fill:#1a1a1a;stroke:#000000;stroke-width:0.26458332px;stroke-linecap:butt;stroke-linejoin:miter;stroke-opacity:1"
       d="m 144.68322,105.77532 0.25294,-4.17355 1.36928,-2.775877 -3.13988,0.246446 -1.64412,2.908841 1.13824,-6.323567 -3.79414,2.023541 -1.26472,0.885302 -0.0788,-4.397211 -4.47417,0.729541 -5.94415,2.655898 -5.69121,11.255946 -2.02354,10.11771 -2.02509,16.11316 5.18687,5.89286 2.15002,-4.55297 2.27648,-4.93239 2.15001,-7.71475 3.41473,-5.81768 -0.37941,-3.28826 -2.78237,-4.42649 4.80591,0.75883 2.02354,0.8853 c 0,0 0.8853,-2.02355 0.25294,-2.15002 -0.63235,-0.12647 -4.30002,-1.51765 -4.30002,-1.51765 l -2.13316,-2.37694 5.80083,0.22692 2.78237,0.75883 -2.78237,-2.52943 1.39118,-1.89707 1.01177,1.01178 3.28826,-1.39119 z"
       id="path1000"
       inkscape:connector-curvature="0"
       sodipodi:nodetypes="ccccccccccccccccccccccccccccccccc" />
    <path
       style="fill:#1a1a1a;stroke:#000000;stroke-width:0.99999994px;stroke-linecap:butt;stroke-linejoin:miter;stroke-opacity:1"
       d="m 380.41797,410.01953 c 0.46397,7.73991 0.34391,7.18515 -5.57813,11.49219 2.83082,9.78675 1.85229,7.94654 -6.75976,12.50586 3.31018,9.45044 4.81799,8.58923 -0.0195,16.43164 0.95454,5.13513 -0.39933,7.67737 -2.86719,11.94922 8.66987,16.59386 8.39221,13.97414 25.33398,21.0332 7.31573,-15.09716 20.05352,-22.44053 26.08008,-24.21094 l -6.0039,-7.33789 -6.21387,-31.54798 c -8.53062,1.64285 -16.7231,-1.41321 -19.12012,-8.60436 z m 11.79687,24.61133 c 2.01815,0.038 2.54044,1.46204 5.00391,6.25781 l -4.30078,9.08203 -4.0625,8.36524 c -7.20371,2.90472 -6.75479,4.62724 -11.23438,-2.15039 l 2.62891,-11.71094 5.97461,-8.84375 c 3.02931,-0.54627 4.77935,-1.02278 5.99023,-1 z"
       transform="scale(0.26458333)"
       id="path1004"
       inkscape:connector-curvature="0"
       sodipodi:nodetypes="ccccccccccccccccccc" />
    <image
       sodipodi:absref="./lagartija_rostro.jpg"
       xlink:href="lagartija_rostro.jpg"
       transform="scale(-1,1)"
       width="62.772633"
       height="65.918106"
       preserveAspectRatio="none"
       id="image136"
       x="1.5308505"
       y="52.947578" />
    <path
       style="fill:none;stroke:#333333;stroke-width:0.26458332px;stroke-linecap:butt;stroke-linejoin:miter;stroke-opacity:1"
       d="m 107.08293,86.500614 c 5.07826,2.086723 10.44811,1.552601 18.25017,-0.383252"
       id="path1014"
       inkscape:connector-curvature="0"
       sodipodi:nodetypes="cc" />
    <path
       style="fill:#1a1a1a;stroke:#000000;stroke-width:0.26458332px;stroke-linecap:butt;stroke-linejoin:miter;stroke-opacity:1"
       d="m 44.557873,105.93548 c -2.904054,4.43923 -3.955668,4.25129 -8.853447,5.61165 l 1.945076,3.37594 c 4.148157,-1.30956 5.858936,-2.73941 9.054662,-5.32101 z"
       id="path1021"
       inkscape:connector-curvature="0"
       sodipodi:nodetypes="ccccc" />
    <path
       style="fill:#1a1a1a;stroke:#000000;stroke-width:0.26458332px;stroke-linecap:butt;stroke-linejoin:miter;stroke-opacity:1"
       d="m 112.33817,123.1019 c -3.2376,4.16183 -4.18545,4.51526 -8.78975,6.60813 l 1.70736,5.31179 c 5.26323,-1.64527 6.03695,-2.05361 9.67506,-5.75445 z"
       id="path1023"
       inkscape:connector-curvature="0"
       sodipodi:nodetypes="ccccc" />
  </g>
</svg>
