<?xml version="1.0" encoding="UTF-8" standalone="no"?>
<!-- Created with Inkscape (http://www.inkscape.org/) -->

<svg
   xmlns:dc="http://purl.org/dc/elements/1.1/"
   xmlns:cc="http://creativecommons.org/ns#"
   xmlns:rdf="http://www.w3.org/1999/02/22-rdf-syntax-ns#"
   xmlns:svg="http://www.w3.org/2000/svg"
   xmlns="http://www.w3.org/2000/svg"
   xmlns:xlink="http://www.w3.org/1999/xlink"
   xmlns:sodipodi="http://sodipodi.sourceforge.net/DTD/sodipodi-0.dtd"
   xmlns:inkscape="http://www.inkscape.org/namespaces/inkscape"
   width="210mm"
   height="297mm"
   viewBox="0 0 210 297"
   version="1.1"
   id="svg8"
   inkscape:version="0.92.3 (2405546, 2018-03-11)"
   sodipodi:docname="lagartija_cumple.svg">
  <defs
     id="defs2" />
  <sodipodi:namedview
     id="base"
     pagecolor="#ffffff"
     bordercolor="#666666"
     borderopacity="1.0"
     inkscape:pageopacity="0.0"
     inkscape:pageshadow="2"
     inkscape:zoom="0.35"
     inkscape:cx="1016.4209"
     inkscape:cy="622.29753"
     inkscape:document-units="mm"
     inkscape:current-layer="layer1"
     showgrid="false"
     inkscape:window-width="1366"
     inkscape:window-height="712"
     inkscape:window-x="0"
     inkscape:window-y="0"
     inkscape:window-maximized="1" />
  <metadata
     id="metadata5">
    <rdf:RDF>
      <cc:Work
         rdf:about="">
        <dc:format>image/svg+xml</dc:format>
        <dc:type
           rdf:resource="http://purl.org/dc/dcmitype/StillImage" />
        <dc:title></dc:title>
      </cc:Work>
    </rdf:RDF>
  </metadata>
  <g
     inkscape:label="Capa 1"
     inkscape:groupmode="layer"
     id="layer1">
    <image
       sodipodi:absref="./base.jpg"
       xlink:href="base.jpg"
       width="189.24559"
       height="284.08691"
       preserveAspectRatio="none"
       id="image834"
       x="11.151811"
       y="5.6559596" />
    <path
       style="fill:#496b13;fill-opacity:1;stroke:#000000;stroke-width:0.26458332px;stroke-linecap:butt;stroke-linejoin:miter;stroke-opacity:1"
       d="m 49.444862,119.0244 -3.436438,31.09023 -5.355875,19.9884 c -4.621414,20.15944 -4.492841,37.15849 -4.337474,68.29907 l 25.893617,6.93817 27.951676,7.48963 h 27.170952 l 6.2822,-10.8811 v -15.77523 l 5.07037,-18.92285 4.14906,-11.01133 6.1472,-8.55263 2.13816,-3.74177 -1.33635,27.52876 3.20724,18.70887 1.33634,14.96709 4.00905,8.55262 2.40542,9.08717 2.40543,8.55261 4.00904,7.2163 4.81085,5.07812 5.61266,-0.80182 7.75082,-8.81988 3.20723,-6.68174 -0.53454,-6.14721 -4.27631,-6.1472 -3.20723,-2.40543 2.93996,-4.27631 V 228.579 l -2.40542,-8.8199 v -9.35443 l -1.33635,-23.25245 v -6.41447 l 3.4745,-26.45968 -7.21628,-17.37252 -22.18337,-19.51068 -4.54358,-7.75081 -2.13815,-2.13816 -5.87993,-0.26727 1.87088,-8.285351 1.60362,-9.354434 -29.39965,-4.543581 -3.74177,0.534538 -1.870887,8.285356 -5.612659,-4.810853 -20.579755,-1.870884 -11.133047,1.163722 v 0"
       id="path858"
       inkscape:connector-curvature="0"
       sodipodi:nodetypes="cccccccccccccccccccccccccccccccccccccccccccccccc" />
    <image
       sodipodi:absref="./inspiracion.jpg"
       xlink:href="inspiracion.jpg"
       width="317.5"
       height="317.5"
       preserveAspectRatio="none"
       id="image868"
       x="173.86905"
       y="-76.440475" />
    <path
       style="fill:#000000;stroke:#000000;stroke-width:0.26458332px;stroke-linecap:butt;stroke-linejoin:miter;stroke-opacity:1"
       d="m 76.059471,149.63382 8.352618,21.48223 v 0 l -4.498502,4.54358 -2.138156,0.80181 -5.940401,-19.51067 z"
       id="path873"
       inkscape:connector-curvature="0" />
    <path
       style="fill:#557917;stroke:#000000;stroke-width:0.26458332px;stroke-linecap:butt;stroke-linejoin:miter;stroke-opacity:1;fill-opacity:1"
       d="m 62.366072,88.357143 -18.955747,5.079174 -9.755058,5.632088 -14.165505,8.178455 -11.6058064,3.10977 -8.08333116,4.66691 -2.61934914,9.77555 v 11.939 l 8.2129337,8.21294 9.872889,-2.64544 h 11.569211 l 15.378326,-4.12061 h 13.347864 l 6.967704,-1.86699 -2.132499,7.9586 3.262556,3.26255 v 7.71979 l 2.103861,0.56372 0.844761,3.1527 2.472548,1.42752 2.7536,-0.73782 v -2.71428 l 2.303529,-3.98983 1.920912,-3.32712 -1.710777,6.38471 -1.018408,3.80075 -4.304834,7.45619 v 2.23696 l 3.227837,0.8649 3.976783,-2.296 3.590578,-6.21906 2.030092,-3.51622 2.561347,-9.55909 v 11.63831 10.69078 l 0.851987,3.17966 h 2.934867 l 2.969519,-11.0824 V 148.79905 L 84.946116,138.02162 78.096395,126.15756 71.164187,122.15524 59.479716,119.0244 H 49.444862 l -15.739226,-4.21731 -8.556652,-4.94019 -5.066127,-2.92493"
       id="path856"
       inkscape:connector-curvature="0" />
    <path
       style="fill:#cccccc;stroke:#000000;stroke-width:0.26458332px;stroke-linecap:butt;stroke-linejoin:miter;stroke-opacity:1"
       d="m 84.412089,171.11605 11.537669,23.51972 11.492592,31.5378 1.33635,7.48355 -12.56167,-10.69078 -13.630746,-27.79603 -5.612662,-9.35443 2.939963,-10.15625 v 0 z"
       id="path875"
       inkscape:connector-curvature="0" />
    <path
       style="fill:#1a1a1a;stroke:#000000;stroke-width:0.26458332px;stroke-linecap:butt;stroke-linejoin:miter;stroke-opacity:1"
       d="m 134.70384,89.598843 10.42351,0.801812 -5.61266,2.939965 8.55263,2.672694 -5.34539,3.207234 9.35443,5.345392 -12.82894,5.07812 11.49259,3.74177 -6.94901,4.00904 v 0 l -8.47553,32.19441 2.26786,17.38691 2.19863,44.49756 3.20724,18.70887 -19.37568,-4.00905 9.21943,-29.93418 -0.53453,-9.6217 -1.33635,-18.70887 -1.06908,-32.33962 3.74177,-22.18337 -1.87089,-13.630742 z"
       id="path877"
       inkscape:connector-curvature="0"
       sodipodi:nodetypes="cccccccccccccccccccccc" />
  </g>
</svg>
